<svg xmlns="http://www.w3.org/2000/svg" viewBox="0 0 250278 333332" shape-rendering="geometricPrecision" text-rendering="geometricPrecision" image-rendering="optimizeQuality" fill-rule="evenodd" clip-rule="evenodd"><path d="M128817 316964c17108-10891 32490-24060 45906-38766 29106-31874 48735-70825 56611-109039 7815-37719 4121-74701-13171-103252-4920-8185-11076-15693-18396-22399-20984-19137-45043-28243-69227-28490-25412-185-51195 9353-73962 27506-9722 7753-17722 16675-23937 26520-15999 25167-20860 56427-15568 89103 5353 33167 21106 67870 46211 99314 17476 21907 39444 42275 65595 59443l-62 60zm43441-191144h-5629v16793h5645v15c1156-2 2225-494 3009-1279l149-136c689-758 1115-1758 1122-2841l-13-2v-34h13v-8243h-13v-13h13c-2-1167-483-2231-1263-3008-778-775-1841-1256-3000-1266v13h-34zm-71241-57094c1781-1175 4151-642 5292 1191 1143 1833 627 4280-1156 5458-3244 2144-3261 3812-2267 5313 856 1296 2178 2703 3493 4100 1825 1940 3646 3880 4904 6129 2979 5318 2720 10609-6659 15857-1851 1041-4180 337-5186-1575-1008-1916-323-4311 1530-5352 3915-2191 4408-3719 3687-5003-747-1341-2253-2945-3765-4549-1557-1658-3126-3329-4333-5156-3506-5304-4138-10732 4461-16414zm43128 0c1781-1175 4150-642 5293 1191s626 4280-1157 5458c-3246 2144-3259 3812-2267 5313 856 1296 2180 2703 3491 4100 1825 1940 3650 3880 4904 6129 2979 5319 2724 10609-6655 15857-1854 1041-4180 337-5187-1575-1007-1916-321-4311 1530-5352 3917-2191 4408-3716 3685-5003-747-1341-2254-2945-3763-4549-1559-1658-3128-3329-4334-5156-3507-5307-4137-10727 4460-16414zm-21561 0c1780-1175 4149-642 5292 1191 1141 1833 624 4280-1156 5458-3245 2144-3261 3812-2267 5313 856 1296 2175 2703 3491 4100 1821 1940 3644 3880 4904 6129 2977 5318 2719 10611-6654 15857-1854 1041-4178 337-5186-1575-1011-1916-326-4311 1528-5352 3915-2191 4403-3719 3687-5003-747-1341-2257-2945-3767-4549-1559-1658-3128-3329-4332-5156-3511-5304-4136-10732 4460-16414zM80594 182351h26393c-12459-6231-21073-19120-21073-33937v-30563h75842v397c326-89 672-130 1026-130l9513-2v15h15c3270 11 6246 1350 8397 3499 2169 2159 3519 5152 3525 8450h15v15h-15v8097l2 149h13v31h-15v13c-11 3136-1240 6002-3235 8126-76 99-170 190-263 284-2156 2154-5152 3500-8457 3504v18l-9495-2c-371 0-733-60-1071-156-647 14071-9050 26205-21017 32191h28461c789 0 1437 773 1437 1726v7269c0 951-648 1723-1437 1723H80595c-794 0-1441-772-1441-1723v-7269c0-953 646-1726 1441-1726zm105267 105938c-15198 16615-32797 31507-52673 43567-2400 1784-5784 2031-8492 308-29289-18644-53840-41043-73226-65348-26642-33475-43504-70580-49224-106332-5847-36243-370-71071 17660-99499 7137-11199 16182-21414 27320-30214C72639 10527 101745-179 130666 4c27876 246 55381 10584 79257 32366 8367 7632 15381 16246 21104 25723 19383 31935 23569 72732 15077 113960-8431 40797-29290 82270-60181 116114l-60 123v-2z"/></svg>